<?xml version="1.0" standalone="no"?>
<!DOCTYPE svg PUBLIC "-//W3C//DTD SVG 20010904//EN"
 "http://www.w3.org/TR/2001/REC-SVG-20010904/DTD/svg10.dtd">
<svg version="1.0" xmlns="http://www.w3.org/2000/svg"
 width="260.000000pt" height="260.000000pt" viewBox="0 0 260.000000 260.000000"
 preserveAspectRatio="xMidYMid meet">
<metadata>
Created by potrace 1.11, written by Peter Selinger 2001-2013
</metadata>
<g transform="translate(0.000000,260.000000) scale(0.100000,-0.100000)"
fill="#000000" stroke="none">
<path d="M1190 2419 c-103 -14 -201 -63 -258 -129 -25 -29 -40 -55 -36 -62 5
-7 3 -8 -6 -3 -10 6 -12 4 -7 -7 3 -9 1 -20 -5 -26 -31 -31 -61 -154 -53 -216
3 -27 1 -81 -6 -120 -10 -54 -10 -71 -1 -74 7 -2 12 -12 12 -22 0 -10 4 -21 9
-25 5 -3 15 -31 21 -63 19 -91 25 -87 27 16 2 87 4 98 25 114 20 15 25 15 38
2 12 -12 12 -18 2 -32 -26 -36 -42 -83 -36 -107 5 -21 9 -23 25 -14 13 6 19 6
19 -1 0 -17 63 -11 98 10 17 11 32 24 32 28 0 5 11 15 25 22 13 7 29 26 34 41
5 16 14 29 20 29 5 0 7 10 5 23 -4 20 -4 20 4 2 9 -19 7 -128 -2 -190 -2 -16
-5 -40 -5 -53 -1 -16 -5 -21 -13 -16 -10 6 -10 4 0 -8 9 -11 10 -18 2 -23 -6
-3 -8 -10 -5 -15 8 -12 -26 -29 -63 -32 -23 -2 -32 -8 -37 -25 -3 -13 -10 -23
-15 -23 -17 0 -10 34 15 75 25 41 32 65 17 65 -5 0 -19 -28 -33 -62 -18 -48
-28 -62 -42 -60 -10 2 -16 -3 -15 -10 2 -7 -7 -14 -19 -16 -25 -4 -53 -37 -53
-62 0 -9 10 -27 22 -40 l21 -23 23 46 c21 45 46 77 59 77 4 0 19 -10 34 -23
l27 -22 -26 -21 c-14 -12 -40 -29 -59 -38 -31 -17 -33 -20 -28 -58 6 -48 12
-55 32 -38 20 16 36 3 60 -49 15 -34 21 -39 46 -36 18 3 28 0 26 -8 -1 -8 16
-12 59 -11 59 2 62 1 60 -22 -1 -18 -8 -25 -32 -30 -17 -3 -39 -4 -50 -2 -11
2 -18 -2 -17 -9 3 -13 -27 -6 -37 8 -3 5 -16 6 -29 2 -18 -4 -21 -11 -17 -29
7 -27 -2 -30 -30 -10 -13 10 -23 11 -31 4 -9 -7 -13 -7 -13 2 0 8 -3 11 -6 8
-11 -12 36 -87 78 -122 23 -20 65 -48 93 -61 31 -16 40 -23 25 -21 -29 4 -90
36 -137 73 -18 13 -33 20 -33 16 0 -10 61 -73 91 -94 41 -29 16 -28 -49 2 -38
18 -66 38 -72 52 -7 17 -8 12 -5 -20 5 -42 4 -43 -24 -43 -28 0 -29 1 -21 30
8 28 7 30 -11 25 -11 -4 -30 0 -44 9 -18 12 -50 16 -121 16 -53 0 -122 7 -153
15 -35 9 -96 14 -161 13 -91 -2 -107 -4 -119 -21 -11 -15 -15 -16 -22 -6 -6 9
-3 18 8 27 15 10 13 12 -16 12 -44 0 -73 -34 -146 -174 -64 -123 -91 -144 -31
-24 40 81 42 101 3 36 -22 -36 -26 -39 -27 -20 0 27 -17 62 -29 62 -5 0 -11
-12 -14 -28 -9 -48 -15 -70 -27 -91 -18 -35 -27 -24 -20 24 7 43 1 63 -14 48
-9 -10 -7 -655 3 -648 5 2 20 28 34 57 13 29 45 80 70 113 24 33 56 83 70 111
25 50 57 87 57 66 0 -6 -4 -13 -9 -17 -5 -3 -15 -22 -21 -43 -7 -20 -37 -69
-66 -109 -30 -40 -54 -76 -54 -81 0 -5 -14 -28 -30 -50 -17 -23 -30 -44 -30
-48 0 -3 -7 -12 -15 -20 -31 -32 -16 -42 32 -23 38 16 56 19 148 23 44 2 64 2
45 0 -99 -12 -240 -60 -240 -81 0 -10 257 -13 1300 -13 l1300 0 0 359 0 359
-25 16 c-19 13 -68 19 -213 26 -103 6 -221 14 -262 19 -101 13 -214 16 -229 7
-7 -5 -20 -1 -30 8 -10 9 -29 16 -42 16 -15 0 -35 12 -53 32 -25 29 -27 35
-17 68 5 19 15 75 21 125 6 49 13 91 14 93 2 2 30 -4 62 -12 48 -12 187 -36
208 -36 3 0 6 -15 8 -32 2 -18 9 -34 16 -34 6 -1 15 -2 19 -3 3 0 -4 -9 -15
-20 -31 -26 -28 -29 23 -23 41 4 45 2 55 -22 5 -14 15 -26 21 -26 6 0 9 6 6
14 -5 11 18 15 121 21 69 4 168 5 219 1 l93 -6 0 213 0 214 -87 7 c-143 10
-485 -16 -597 -46 -25 -6 -48 -9 -51 -6 -3 3 4 26 15 52 11 26 20 59 20 72 0
14 5 34 11 46 6 11 12 44 14 72 2 29 7 79 11 112 4 32 7 62 6 66 -1 4 -4 46
-8 95 -6 87 -24 153 -43 153 -5 0 -7 9 -4 21 4 15 0 22 -15 26 -20 5 -31 26
-38 70 -3 27 -70 109 -116 143 -79 59 -187 125 -233 143 -60 23 -187 30 -295
16z m6 -264 c-3 -8 -1 -15 4 -15 6 0 10 6 10 14 0 11 7 13 28 9 15 -4 39 -7
53 -7 19 -1 25 -5 21 -15 -3 -9 -1 -12 6 -7 6 3 16 -3 22 -14 9 -17 8 -20 -7
-20 -17 -1 -17 -1 0 -14 15 -11 15 -15 3 -25 -10 -8 -16 -9 -21 -1 -4 6 -12 7
-24 1 -10 -6 -26 -10 -37 -9 -38 1 -139 -25 -154 -40 -13 -13 -12 -14 10 -7
117 33 258 50 276 33 9 -10 -28 -16 -112 -21 -71 -4 -151 -32 -147 -52 0 -5
-3 -17 -7 -25 -5 -9 -2 -20 6 -28 8 -7 15 -9 15 -5 1 4 3 18 4 31 4 42 34 54
165 66 52 5 54 5 26 -8 -29 -13 -29 -14 -7 -21 13 -4 48 -7 77 -6 33 0 52 -4
49 -9 -5 -9 -46 -11 -162 -10 -12 0 -25 -5 -28 -10 -3 -5 -12 -7 -19 -4 -8 3
-14 -1 -13 -8 2 -44 -5 -54 -52 -76 -58 -26 -61 -26 -61 -7 0 8 -6 12 -14 9
-11 -4 -13 0 -9 15 3 12 0 27 -6 34 -6 8 -8 17 -4 20 3 4 -1 7 -10 7 -10 0
-14 -5 -11 -15 4 -8 2 -15 -2 -16 -5 0 -26 -2 -46 -3 -21 -1 -43 -7 -50 -14
-6 -6 -17 -12 -23 -12 -6 0 -18 -12 -28 -27 l-18 -28 5 44 c7 69 78 203 130
247 44 37 64 45 119 48 15 0 27 4 27 8 0 5 5 8 11 8 6 0 9 -7 5 -15z m174
-375 c0 -5 9 -10 19 -10 11 0 23 -5 27 -12 5 -8 -2 -9 -26 -5 -18 4 -39 7 -47
7 -13 0 -13 3 -3 15 14 17 30 20 30 5z m-326 -26 c18 -17 21 -28 6 -19 -6 3
-17 -1 -26 -9 -8 -9 -26 -16 -38 -16 -13 0 -29 -7 -36 -15 -18 -22 -24 -11
-10 17 31 58 72 75 104 42z m296 -74 l25 -11 -25 7 c-14 3 -33 6 -42 7 -11 1
-18 9 -18 21 0 18 1 18 18 3 9 -9 29 -21 42 -27z m40 25 c0 -8 -4 -15 -9 -15
-13 0 -22 16 -14 24 11 11 23 6 23 -9z m38 -42 c-10 -2 -26 -2 -35 0 -10 3 -2
5 17 5 19 0 27 -2 18 -5z m-28 -39 c0 -2 -7 -4 -15 -4 -8 0 -15 4 -15 10 0 5
7 7 15 4 8 -4 15 -8 15 -10z m122 -14 c-12 -11 -27 -20 -34 -21 -9 0 -9 -2 -2
-5 7 -3 10 -14 7 -25 -4 -12 1 -25 13 -34 11 -8 14 -14 7 -15 -7 0 -13 -6 -13
-14 0 -8 -4 -18 -10 -21 -6 -4 -7 1 -3 12 5 15 3 16 -8 6 -19 -19 -45 -17 -30
1 9 10 9 16 1 21 -6 4 -14 4 -17 1 -4 -3 0 -6 7 -6 9 0 8 -6 -5 -20 -12 -13
-23 -17 -34 -11 -9 5 -22 6 -30 3 -8 -3 -11 0 -7 7 4 6 2 11 -3 11 -16 0 -13
46 4 64 9 8 12 22 9 33 -6 16 -5 15 9 -2 9 -11 17 -28 17 -37 0 -21 16 -24 23
-5 2 6 -3 17 -10 22 -27 20 -4 45 41 46 22 0 50 4 61 8 29 12 32 4 7 -19z
m-382 -288 c1 -15 2 -15 10 -1 11 20 66 20 62 1 -1 -8 2 -11 7 -8 5 4 12 2 16
-4 3 -5 0 -10 -7 -11 -38 -1 -145 -17 -160 -24 -34 -14 -19 22 20 47 39 27 52
27 52 0z m990 17 c0 -6 -9 -8 -20 -4 -15 5 -20 2 -20 -10 0 -11 -5 -15 -15
-11 -15 5 -48 -32 -44 -50 5 -27 -1 -35 -15 -22 -10 9 -11 15 -2 20 7 5 6 11
-5 20 -9 7 -20 20 -23 28 -3 8 -4 5 -2 -8 2 -12 -2 -29 -10 -37 -12 -12 -12
-15 3 -24 10 -5 14 -13 9 -18 -5 -4 -11 -2 -13 5 -3 6 -9 10 -14 6 -5 -3 -9
-1 -9 4 0 10 -42 8 -62 -4 -7 -4 -5 2 5 13 9 11 14 23 10 26 -3 4 2 14 13 22
18 14 18 14 -4 15 -13 0 -20 -4 -17 -10 3 -5 2 -10 -4 -10 -6 0 -8 -6 -5 -14
3 -8 1 -17 -5 -21 -6 -3 -9 0 -5 8 8 23 -13 30 -38 13 -24 -17 -37 -61 -16
-54 7 3 13 13 13 23 0 10 5 20 11 22 17 6 13 -31 -5 -44 -9 -7 -24 -10 -33 -7
-15 4 -17 0 -15 -28 1 -18 5 -32 7 -30 3 2 18 -2 34 -8 27 -10 28 -9 15 7 -13
17 -13 17 7 1 24 -21 50 -23 57 -5 2 6 8 9 12 5 4 -4 5 -15 1 -24 -7 -17 -43
-15 -113 7 -31 10 -33 13 -33 60 0 27 4 49 9 49 5 0 7 9 4 20 -4 17 0 20 25
20 17 0 33 4 37 9 9 15 152 44 181 37 17 -5 23 -3 19 4 -4 6 9 10 34 10 23 0
41 -5 41 -11z m255 -29 c3 -5 2 -10 -4 -10 -5 0 -13 5 -16 10 -3 6 -2 10 4 10
5 0 13 -4 16 -10z m-318 -41 c-8 -13 -14 -15 -22 -8 -7 8 -6 13 3 16 6 3 12
12 12 21 0 14 2 14 9 3 6 -9 5 -21 -2 -32z m-60 -54 c0 -8 -4 -12 -8 -9 -4 2
-10 -5 -14 -16 -8 -25 -21 -26 -35 -1 -11 22 0 34 23 25 8 -3 18 -1 22 5 9 15
12 14 12 -4z m-150 -10 c0 -8 -4 -12 -9 -9 -5 3 -6 10 -3 15 9 13 12 11 12 -6z
m87 -77 c-6 -10 -4 -10 8 0 12 9 18 10 23 2 5 -8 11 -7 23 2 13 11 15 10 9 -4
-4 -12 -2 -15 8 -12 8 3 22 1 32 -6 14 -8 3 -9 -47 -4 -36 3 -67 8 -69 9 -4 4
8 25 15 25 3 0 2 -6 -2 -12z m-562 -40 c-12 -12 -24 -19 -28 -15 -4 3 4 15 17
26 31 25 39 17 11 -11z m-55 -55 c-17 -18 -22 -8 -11 22 5 12 10 13 17 6 8 -8
6 -16 -6 -28z m984 -6 c-11 -11 -60 -17 -74 -10 -17 9 4 19 43 20 29 0 39 -2
31 -10z m-186 -7 c3 -5 -1 -10 -10 -10 -9 0 -13 5 -10 10 3 6 8 10 10 10 2 0
7 -4 10 -10z m255 -5 c0 -8 -7 -15 -15 -15 -9 0 -12 6 -9 15 4 8 10 15 15 15
5 0 9 -7 9 -15z m-120 -36 c-25 -4 -58 -7 -75 -7 -25 1 -24 2 10 8 22 4 56 7
75 7 31 0 30 0 -10 -8z m83 4 c-7 -2 -19 -2 -25 0 -7 3 -2 5 12 5 14 0 19 -2
13 -5z m80 0 c-7 -2 -21 -2 -30 0 -10 3 -4 5 12 5 17 0 24 -2 18 -5z m60 0
c-7 -2 -19 -2 -25 0 -7 3 -2 5 12 5 14 0 19 -2 13 -5z m-1698 -143 c3 -5 13
-7 23 -4 9 2 6 0 -8 -7 -47 -21 -54 -25 -58 -39 -3 -8 0 -10 8 -5 8 5 11 4 6
-3 -3 -6 -20 -13 -36 -17 -48 -11 -81 -54 -42 -56 13 0 14 -2 2 -6 -8 -3 -24
-13 -34 -22 -18 -15 -18 -15 -7 7 12 22 11 23 -8 12 -12 -6 -21 -15 -21 -20 0
-5 -9 -12 -20 -15 -11 -4 -18 -11 -14 -16 3 -6 0 -9 -7 -8 -8 1 -31 -1 -51 -5
-21 -5 -44 -4 -54 2 -15 8 -13 11 14 17 18 3 34 11 37 16 4 5 -1 6 -10 3 -23
-9 -15 18 10 33 11 7 26 12 34 13 7 0 26 11 43 25 16 13 46 29 67 35 21 5 54
23 72 40 37 32 45 35 54 20z m155 -5 c0 -8 -2 -15 -4 -15 -2 0 -6 7 -10 15 -3
8 -1 15 4 15 6 0 10 -7 10 -15z m-83 -1 c-3 -3 -12 -4 -19 -1 -8 3 -5 6 6 6
11 1 17 -2 13 -5z m677 -88 c-3 -8 -17 -16 -32 -19 -15 -3 -44 -17 -66 -32
-21 -14 -40 -25 -42 -23 -1 2 14 23 34 46 31 35 42 42 74 42 28 0 36 -4 32
-14z m-1128 -8 c4 -7 3 -8 -4 -4 -7 4 -12 3 -12 -3 0 -5 4 -12 9 -15 22 -14
-38 -93 -141 -184 -88 -77 -115 -108 -139 -157 -17 -33 -35 -64 -41 -70 -5 -5
2 14 17 44 14 29 27 65 28 79 2 19 20 38 67 74 36 27 79 60 97 74 21 16 36 39
44 67 6 23 20 54 30 69 l19 27 -37 4 c-36 3 -35 4 9 5 26 1 50 -3 54 -10z
m934 -13 c9 -10 9 -15 1 -15 -6 0 -11 4 -11 9 0 5 -10 12 -22 14 -22 4 -22 4
-2 6 12 0 27 -6 34 -14z m-1110 -10 c-14 -8 -32 -14 -40 -14 -8 0 -1 7 15 14
39 18 57 18 25 0z m1155 -13 c-3 -3 -11 0 -18 7 -9 10 -8 11 6 5 10 -3 15 -9
12 -12z m-1289 -109 c-8 -15 -15 -25 -16 -21 0 12 23 58 27 54 3 -2 -2 -17
-11 -33z m14 -177 c0 -2 -8 -10 -17 -17 -16 -13 -17 -12 -4 4 13 16 21 21 21
13z m-79 -209 c-10 -9 -11 -8 -5 6 3 10 9 15 12 12 3 -3 0 -11 -7 -18z m432
-104 c-7 -2 -19 -2 -25 0 -7 3 -2 5 12 5 14 0 19 -2 13 -5z"/>
<path d="M1187 1942 c-10 -10 -17 -27 -17 -38 1 -15 4 -14 16 9 8 15 19 27 24
27 6 0 10 5 10 10 0 16 -15 12 -33 -8z"/>
<path d="M1940 1300 c0 -5 5 -10 11 -10 5 0 7 5 4 10 -3 6 -8 10 -11 10 -2 0
-4 -4 -4 -10z"/>
<path d="M545 700 c-3 -5 -2 -10 4 -10 5 0 13 5 16 10 3 6 2 10 -4 10 -5 0
-13 -4 -16 -10z"/>
<path d="M1046 1641 c-3 -5 -26 -12 -50 -15 -34 -5 -44 -11 -39 -22 7 -20 67
-18 85 4 23 27 30 42 19 42 -5 0 -12 -4 -15 -9z"/>
<path d="M930 1201 c7 -13 20 -47 30 -75 l19 -51 0 38 c1 21 -4 43 -9 50 -6 7
-19 23 -31 37 -20 25 -20 25 -9 1z"/>
<path d="M1010 1180 c0 -8 9 -26 20 -40 l21 -25 -13 30 c-15 38 -28 54 -28 35z"/>
<path d="M2061 949 c-18 -6 -32 -12 -30 -14 8 -7 99 8 99 16 0 11 -25 10 -69
-2z"/>
<path d="M180 838 c-12 -22 -12 -22 6 -6 10 10 15 20 12 24 -4 3 -12 -5 -18
-18z"/>
</g>
</svg>
